<svg height="180" viewBox="0 0 180 180" width="180" xmlns="http://www.w3.org/2000/svg">
    <!-- Curiosity + Concept + Craft by @nyuudo / www.nyuudo.com  -->
    <path d="m-9-9h198v198h-198z" fill="#37539d" />
    <path d="m3.23629 8.00914a1.17531 1.17531 0 0 0 .27.68976z" fill="#37539d" />
    <g fill="#fff">
        <path
            d="m93.80782 87.24275a3.59625 3.59625 0 0 0 -7.19249 0c0 1.17277 3.59669 10.18951 3.59669 10.18951s3.5958-9.01674 3.5958-10.18951z" />
        <path
            d="m113.69709 22.183a3.59625 3.59625 0 1 0 -7.1925 0c0 1.17106 3.5967 10.1887 3.5967 10.1887s3.5958-9.0177 3.5958-10.1887z" />
        <path
            d="m125.38433 27.12719a3.59625 3.59625 0 1 0 -7.1925 0c0 1.172 3.5958 10.1896 3.5958 10.1896s3.5967-9.01764 3.5967-10.1896z" />
        <path
            d="m62.23311 27.12719a3.5967 3.5967 0 1 0 -7.19339 0c0 1.172 3.5967 10.1896 3.5967 10.1896s3.59669-9.01764 3.59669-10.1896z" />
        <path
            d="m73.32867 22.43584a3.59625 3.59625 0 1 0 -7.1925 0c0 1.17107 3.5967 10.18861 3.5967 10.18861s3.5958-9.01754 3.5958-10.18861z" />
        <path
            d="m47.90871 161.41222c3.98116 0 13.88455.29054 13.88455-5.63246 0-5.33931-6.31108-3.20341-6.31108-7.37948 0-1.35894 4.17517-17.86492 7.47692-17.86492 2.3308 0 4.46662 6.02054 5.14613 7.57437.97006 2.13591 4.27181 8.15465 4.27181 10.77688 0 2.42645-4.36925 3.30086-4.36925 6.50507 0 1.65128-.38889 6.02054 18.44869 6.02054 20.29217 0 18.93323-5.82565 18.93323-6.40942 0-2.42645-1.65128-3.78539-3.59229-4.75725-2.91278-1.65038-4.953-7.67091-4.953-8.54352a17.36254 17.36254 0 0 1 1.26329-3.78719c.48462-1.45639 2.52389-8.44779 5.04868-8.44779 2.23335 0 4.36926 6.79741 4.85469 8.35034.38888 1.165 3.39739 8.25389 3.39739 11.06922 0 3.01022-2.23154 3.3983-2.23154 6.31108 0 3.98118 2.42644 6.21453 16.60243 6.21453 4.4667 0 17.57429-.19489 17.57429-6.894 0-5.923-3.88374-2.3307-6.60252-9.3213 0 0-.12118-.61012-.34061-1.71537-2.78818-24.04161-11.90057-100.81758-14.53773-100.81758-1.13592 0-2.41943 7.57437-3.64669 17.96587-3.48253-13.62124-6.54371-23.36047-8.17656-23.36047-4.89065 0-11.35365 46.37583-14.01625 67.25709a11.01616 11.01616 0 0 0 -11.39841-.14392c-3.78461-23.59227-11.24388-67.11322-14.78263-67.11322-1.58287 0-4.43065 8.84118-7.68935 21.45452-1.15622-9.39771-2.351-16.05992-3.41674-16.05992-2.43263 0-10.37657 65.34421-13.78187 94.34055-1.01923 5.11017-1.61793 8.1924-1.61793 8.1924-2.62224 6.79741-6.7 5.53421-6.7 10.29226.00002 5.43676 7.28207 5.92309 11.26235 5.92309z" />
    </g>
</svg>