<svg enable-background="new 0 0 1200 192" viewBox="0 0 1200 192" xmlns="http://www.w3.org/2000/svg">
    <!-- Curiosity + Concept + Craft by @nyuudo / www.nyuudo.com  -->
    <path
        d="m109.6 87.7s-4-10-4-11.3c0-2.2 1.8-4 4-4s4 1.8 4 4c0 1.3-4 11.3-4 11.3zm26.1-83.7c0-2.2-1.8-4-4-4s-4 1.8-4 4c0 1.3 4 11.3 4 11.3s4-10 4-11.3zm13 5.5c0-2.2-1.8-4-4-4s-4 1.8-4 4c0 1.3 4 11.3 4 11.3s4-10 4-11.3zm-57.9-5.2c0-2.2-1.8-4-4-4s-4 1.8-4 4c0 1.3 4 11.3 4 11.3s4-10 4-11.3zm1109.2 85.7c-347.9-15.9-695.3 18-1043 15.2-4.3-34.7-10-78.4-12.1-78.4-1.3 0-2.7 8.4-4.1 20-3.9-15.2-7.3-26-9.1-26-5.4 0-12.6 51.6-15.6 74.8-3.9-2.4-8.8-2.5-12.7-.2-4.2-26.2-12.5-74.7-16.4-74.7-1.8 0-4.9 9.8-8.6 23.9-1.3-10.5-2.6-17.9-3.8-17.9-2.1 0-7.7 42.3-11.9 76.7-20.9-.6-41.9-1.4-62.7-2.3v90.9h1200zm-1121.5-80.5c0-2.2-1.8-4-4-4s-4 1.8-4 4c0 1.3 4 11.3 4 11.3s4-10 4-11.3z"
        fill="#37539d" />
</svg>