<svg width="32px" height="32px" enable-background="new 0 0 32 32" viewBox="0 0 32 32"
    xmlns="http://www.w3.org/2000/svg">
    <!-- Curiosity + Concept + Craft by @nyuudo / www.nyuudo.com  -->
    <path
        d="m16 .4c-4 0-7.2 2.9-7.2 6.4 0 .5.4.8.9.8s.9-.4.9-.8c0-2.6 2.4-4.8 5.4-4.8s5.4 2.1 5.4 4.7c0 .4.4.8.9.8s.9-.4.9-.8c0-3.5-3.2-6.3-7.2-6.3zm13 9.6c0-1.1-1.1-2-2.5-2h-21c-1.4 0-2.5.9-2.5 2l-3 20c0 1.1 1.1 2 2.6 2h26.9c1.4 0 2.5-.9 2.5-2.1zm-19 6c-1.1 0-2-.9-2-2s.9-2 2-2 2 .9 2 2-.9 2-2 2zm12 0c-1.1 0-2-.9-2-2s.9-2 2-2 2 .9 2 2-.9 2-2 2z"
        fill="#f5f6fa" />
</svg>