<svg width="36" height="48" enable-background="new 0 0 36 48" viewBox="0 0 36 48"
    xmlns="http://www.w3.org/2000/svg">
    <!-- Curiosity + Concept + Craft by @nyuudo / www.nyuudo.com  -->
    <path
        d="m17.9 21.5c.5 1.1.9 2.3 1.2 3.4 0 .7-.5 1.2-1.2 1.2s-1.2-.5-1.2-1.2c.4-1.1.8-2.3 1.2-3.4zm-7.9 25.3c0 .7.5 1.2 1.2 1.2s1.2-.5 1.2-1.2c-.3-1.2-.7-2.3-1.2-3.4-.4 1.1-.8 2.2-1.2 3.4zm-3.9-1.7c0 .7.5 1.2 1.2 1.2s1.2-.5 1.2-1.2c-.3-1.2-.7-2.3-1.2-3.4-.4 1.1-.9 2.3-1.2 3.4zm21.2 0c0 .7.5 1.2 1.2 1.2s1.2-.5 1.2-1.2c-.3-1.2-.7-2.3-1.2-3.4-.4 1.1-.8 2.3-1.2 3.4zm-3.7 1.6c0 .7.5 1.2 1.2 1.2s1.2-.5 1.2-1.2c-.3-1.2-.7-2.3-1.2-3.4-.5 1.1-.9 2.2-1.2 3.4zm8.5-46.7c-1.3 0-4.7-.1-4.7 1.9 0 1.8 2.1 1.1 2.1 2.5 0 .5-1.4 6-2.5 6-.8 0-1.5-2-1.7-2.5-.3-.7-1.4-2.7-1.4-3.6 0-.8 1.5-1.1 1.5-2.2 0-.6.1-2-6.2-2-6.8 0-6.4 2-6.4 2.2 0 .7.5 1.4 1.2 1.6.9.7 1.4 1.8 1.7 2.9-.1.4-.2.9-.4 1.3-.2.5-.8 2.8-1.7 2.8-.8 0-1.5-2.3-1.6-2.8-.5-1.2-.9-2.4-1.1-3.7 0-1 .7-1.1.7-2.1 0-1.5-.9-2.3-5.6-2.3-1.5 0-5.9.1-5.9 2.3 0 2 1.3.8 2.2 3.1l.1.6c.9 8.1 4 33.9 4.9 33.9.4 0 .8-2.5 1.2-6 1.2 4.6 2.2 7.9 2.7 7.9 1.6 0 3.8-15.6 4.7-22.6 1.2.7 2.6.7 3.8 0 1.3 7.9 3.8 22.6 5 22.6.5 0 1.5-3 2.6-7.2.4 3.2.8 5.4 1.1 5.4.8 0 3.5-22 4.6-31.7.3-1.7.5-2.8.5-2.8.9-2.3 2.3-1.9 2.3-3.5.1-1.8-2.3-2-3.7-2z"
        fill="#f5f6fa" />
</svg>