<svg height="60" viewBox="0 0 320 60" width="320" xmlns="http://www.w3.org/2000/svg">
    <!-- Curiosity + Concept + Craft by @nyuudo / www.nyuudo.com  -->
    <path
        d="m28.58892 23.46535a2.12 2.12 0 0 0 1.19457 2.31176c.77056.42361 1.30983.65459 1.30983 1.61815 0 .92424-.077 2.85138-7.66715 2.85138-1.69549 0-6.6273-.03867-6.6273-2.6204-.15435-2.96632 2.697.30832 2.697-7.51319 0-2.08078-.46228-2.00344-2.38874-2.00344-5.39409 0-4.8935.15432-4.8935 3.62194 0 5.27809 2.38874 3.15931 2.38874 5.66371 0 2.6967-5.625 2.85138-7.47451 2.85138-1.77244 0-7.12786-.15464-7.12786-2.77437a1.82841 1.82841 0 0 1 1.23285-1.6185c1.38684-.65459 1.88815-.5393 1.88815-8.59177 0-10.24927-.15432-9.40169-1.58019-10.17193-.57758-.30827-1.2712-.65525-1.2712-1.42546 0-2.967 6.43431-3.27535 8.59211-3.27535 1.61814 0 6.08767.193 6.08767 2.50475 0 1.19453-.65491 1.61815-1.54116 2.15741-.96323.5393-1.19457 1.0019-1.19457 4.43086 0 2.15812 1.0019 1.88779 2.85138 1.88779h1.96513c2.54271 0 2.46573-.38494 2.46573-1.57947 0-4.19988-.65491-4.46953-1.15586-4.73918-.73193-.42361-1.42587-.77057-1.42587-1.77247 0-.73193-.154-2.88969 7.51354-2.88969 1.81081 0 6.93525.03867 6.93525 2.73573a1.91581 1.91581 0 0 1 -1.19417 1.81113c-1.1559.5006-1.57987.38495-1.57987 6.51129zm19.30816 3.12065c-1.8878 5.1248-4.35388 10.13292-10.63419 10.13292-2.7744 0-6.049-1.42552-6.049-4.62353a3.46173 3.46173 0 0 1 3.429-3.5439c3.58331 0 2.58174 4.08423 4.16125 4.08423 1.04057 0 1.50285-1.00226 1.50285-1.88851a9.78774 9.78774 0 0 0 -1.23324-3.50594l-5.39417-11.28911c-.7319-1.54152-2.92833-1.07924-2.92833-2.8517 0-1.1559.69359-2.851 8.82337-2.851 1.46418 0 4.93181.15432 4.93181 2.35043 0 1.04054-.88589 1.34818-.88589 2.27306 0 1.46419 1.69516 4.16125 2.35007 4.16125 1.1559 0 1.96514-2.6584 1.96514-3.58331 0-1.7338-1.23285-1.61815-1.23285-2.92833 0-2.04212 3.62159-2.2731 5.00879-2.2731 1.2712 0 4.12254.193 4.12254 1.96478 0 2.27377-2.31176 1.27187-3.66026 3.545a23.9711 23.9711 0 0 0 -2.00344 4.54676zm11.07106-4.39219c0-4.04591-.23134-4.93181-.424-5.12444-.501-.5013-2.58137 0-2.58137-2.19647 0-2.62 7.93679-4.62349 10.78818-4.62349.92488 0 1.07888.30828 1.07888 1.15587 0 .26965.03867.80891.42361.80891.53962 0 2.69739-2.08011 5.85669-2.08011 5.0475 0 7.74453 5.04714 7.74453 9.55534 0 5.16275-3.66026 10.67217-9.28569 10.67217a15.08531 15.08531 0 0 1 -3.96858-.96255c-.53926 0-.6166.80891-.6166 1.23217 0 2.92836 2.38911 2.00451 2.38911 3.892 0 2.15812-3.5063 2.42777-5.00879 2.42777-5.16315 0-9.20871-1.88851-9.20871-3.85328 0-1.73383 1.57947-1.07853 2.27345-2.58138.38494-.80891.53926-1.92718.53926-6.20336zm10.55721-6.35768c-1.38721 0-1.84949.57794-1.84949 7.59053 0 1.27119.6166 1.73383 1.96478 1.73383 2.3891 0 2.69706-2.58138 2.69706-4.43086 0-1.84982-.3853-4.89348-2.81235-4.89348zm22.79565 5.1245c-.42393 0-1.04053-.11533-1.04053.53927 0 1.92678 2.50471 3.545 4.31517 3.545 2.88969 0 4.31592-1.73383 5.1248-1.73383s1.50285 1.19457 1.50285 1.92682c0 2.96668-5.43308 5.12376-8.90071 5.12376-6.93525 0-10.51889-5.00847-10.51889-9.97895 0-5.93335 5.04779-10.24856 10.82717-10.24856 6.55031 0 9.44 5.04714 9.44 7.93684 0 2.5427-1.15586 2.88969-2.3891 2.88969zm3.352-4.85447a2.25815 2.25815 0 0 0 -2.27342-2.46576 2.55547 2.55547 0 0 0 -2.31176 2.54274c0 1.38685 1.30986 1.07888 2.31176 1.07888 1.04015-.00002 2.27336.23098 2.27336-1.15586zm10.547 2.04176c0-3.77559-2.38839-1.65649-2.38839-4.00689 0-3.044 9.016-3.8916 9.36232-3.8916 1.46418 0 1.50285.3853 1.65717 1.69513.03867.46264 0 1.34889.65459 1.34889.92492 0 1.50285-3.044 4.81651-3.044a4.20008 4.20008 0 0 1 4.27687 4.46953 4.712 4.712 0 0 1 -4.7395 4.62349c-2.504 0-3.198-2.19643-4.19956-2.19643-1.07853 0-.88622 2.58209-.88622 3.27531a35.44782 35.44782 0 0 0 .30829 4.23859c.2313 1.69512 3.15934.65455 3.15934 2.96632 0 2.42705-3.39032 2.6204-7.62887 2.6204-1.77246 0-7.01259.07734-7.01259-2.58173 0-1.61815 1.7725-1.61815 2.19643-2.967a19.05132 19.05132 0 0 0 .42361-4.23793zm19.74047-7.75045a1.17532 1.17532 0 0 0 .27.68977zm46.22083 10.56316c-.42361 0-1.04025-.11533-1.04025.53927 0 1.92678 2.50444 3.545 4.31521 3.545 2.88969 0 4.31556-1.73383 5.12448-1.73383s1.50285 1.19457 1.50285 1.92682c0 2.96668-5.43276 5.12376-8.90039 5.12376-6.93529 0-10.51889-5.00847-10.51889-9.97895 0-5.93335 5.04778-10.24856 10.82717-10.24856 6.55 0 9.43965 5.04714 9.43965 7.93684 0 2.5427-1.15586 2.88969-2.38906 2.88969zm3.3523-4.85447a2.25824 2.25824 0 0 0 -2.27378-2.46576 2.55575 2.55575 0 0 0 -2.31176 2.54274c0 1.38685 1.31022 1.07888 2.31176 1.07888 1.04057-.00002 2.27378.23098 2.27378-1.15586zm19.95229 5.39374c0 2.58209 1.07854 3.198 2.11911 3.198 1.19452 0 1.88779-.88625 2.58172-.88625.77025 0 1.30951 1.07924 1.30951 1.7725 0 2.54342-4.39184 4.77749-8.28343 4.77749-1.96513 0-6.89694-.84758-6.89694-6.9736v-7.93718c0-.69323 0-.96288-.193-1.07853a4.98736 4.98736 0 0 0 -1.50214-.03867c-1.00189 0-1.50285.03867-1.69516-.154-.27033-.26965-.193-.65527-.193-1.54152 0-.53927-.11533-.96323.34663-1.27155l8.78506-5.58637c.88625-.54.84758-.424 2.00344-.424 1.54084 0 1.61818-.154 1.61818 1.6185a11.80361 11.80361 0 0 0 .11565 2.851c.1153.30828.385.30828 1.3872.30828h2.697c1.65681 0 1.65681.11533 1.65681 1.84913 0 2.19647-.27 2.35043-1.77247 2.35043h-2.65871c-1.34854 0-1.42552.03867-1.42552 1.42551zm6.381-12.39067a8.19807 8.19807 0 1 1 8.19811 8.19877 8.196 8.196 0 0 1 -8.1981-8.19877zm14.84626 0a6.64819 6.64819 0 1 0 -6.64819 6.64891 6.628 6.628 0 0 0 6.6482-6.64891zm-3.616-3.88568c.51732 0 1.19036.764 1.19036 2.15673a1.171 1.171 0 0 1 -1.14541 1.28026c-1.3022 0-.94269-2.179-3.12207-2.179-.98795 0-1.37011.89877-1.37011 1.75192 0 1.59482.94336 3.21228 2.69563 3.21228 1.437 0 1.86447-.85382 2.179-.85382.35847 0 .53823.40442.53823.719a1.74055 1.74055 0 0 1 -1.19036 1.68467c-.85279.15714-1.25725.71834-2.73987.71834a4.6519 4.6519 0 0 1 -4.71724-4.53709 4.75469 4.75469 0 0 1 4.82939-4.46953 7.369 7.369 0 0 1 2.29122.60615c.20171-.00001.38146-.08991.56122-.08991zm39.75091 9.487c-.34663.30764-.69357.5393-.69357 1.03989 0 .50095.424.65527.8089.8479 1.58019.61628 4.31518 2.6584 4.31518 5.895 0 3.85257-2.58138 8.59243-10.32555 8.59243-1.31054 0-2.50475-.03867-3.66061-.116-1.15586-.03867-2.31177-.07734-3.50594-.07734-1.31022 0-2.6584.03867-3.96894.07734-1.3095.0773-2.62.116-3.96822.116-1.19453 0-2.54271-.69394-2.54271-2.04212 0-2.38942 2.504.03764 2.735-6.35764l.42432-11.09686c.231-5.818-3.08232-3.15931-3.08232-5.818 0-1.46418 1.57947-2.15744 2.774-2.15744 1.42552 0 2.851.07733 4.27654.11533 1.42552.07733 2.851.15432 4.27654.15432.92492 0 1.81117-.077 2.69739-.15432.88625-.038 1.81117-.11533 2.69742-.11533 7.05055 0 8.86136 3.352 8.86136 6.31865a6.226 6.226 0 0 1 -2.1188 4.77822zm-11.21247-1.69584c0 1.50285-.07666 2.23514 1.1172 2.23514 2.31177 0 2.85138-1.61851 2.85138-3.73728 0-1.7338-.57761-3.892-2.69671-3.892-1.4255 0-1.27187 1.1559-1.27187 2.27345zm0 9.40133c0 4.46989.73225 4.58522 1.92647 4.58522 2.19643 0 2.96667-1.50285 2.96667-3.50633 0-2.3504-.6929-4.43051-3.39029-4.43051-1.19457 0-1.46418.61593-1.50285 1.42552zm32.13141-19.0719c3.77595 0 6.20368 1.8878 7.20491 1.8878.84758 0 1.07888-.26965 1.73379-.26965 1.6185 0 3.699 2.42741 3.699 6.70427 0 2.19576-1.30987 4.0456-3.583 4.0456-3.9689 0-2.967-6.81961-9.825-6.81961-2.967 0-4.20024 2.774-4.20024 4.89314 0 5.70238 3.04437 10.55685 8.43811 10.55685 4.89314 0 5.62575-2.65872 6.82-2.65872 1.11755 0 1.65681 1.31022 1.65681 2.27378 0 1.69516-1.77246 5.23977-3.69892 5.23977-1.31022 0-4.00689 2.23442-8.55376 2.23442-8.09115 0-14.71809-6.39563-14.71809-14.1398.00006-7.89884 7.43591-13.94785 15.02639-13.94785zm34.32723 9.825c.46228.38562 1.69516 1.50285 2.3891 1.50285.96323 0 1.00154-1.57986 1.00154-2.23514a13.2079 13.2079 0 0 0 -.34695-3.50629c-.5393-1.61779-2.58141-1.03986-2.58141-3.12064 0-2.46573 3.93026-2.35043 5.54877-2.35043 1.6952-.00005 5.89472-.19269 5.89472 2.46603 0 2.19608-2.04211 1.3872-2.69667 3.15931a18.336 18.336 0 0 0 -.50133 5.24017v9.97891c0 1.73383.23166 7.013-2.35043 7.013a3.18174 3.18174 0 0 1 -2.00345-.96359l-11.90572-10.67294c-.53926-.5006-1.5408-1.42552-2.35043-1.42552-1.19452 0-1.23249 2.50476-1.23249 3.31367a17.44558 17.44558 0 0 0 .26961 3.5063c.57762 2.46572 2.61973 1.5408 2.61973 3.4286 0 2.58241-3.96858 2.81339-5.77938 2.81339-1.77248 0-5.741-.231-5.741-2.736 0-2.04176 2.2351-1.23289 2.62-3.699a41.40446 41.40446 0 0 0 .34694-5.81735 55.26394 55.26394 0 0 0 -.42393-8.36144c-.61664-3.85257-3.39064-2.35043-3.39064-4.6622 0-2.73534 5.20142-2.58137 6.93525-2.58137 2.38911 0 2.813.15432 4.54651 1.69516zm-165.709 18.6525a1.42709 1.42709 0 0 0 2.85417 0 39.36136 39.36136 0 0 0 -1.42726-4.04346 39.36777 39.36777 0 0 0 -1.42689 4.04341zm-7.89254 25.81736a1.42708 1.42708 0 1 0 2.85416 0 39.411 39.411 0 0 0 -1.42726-4.04313 39.41755 39.41755 0 0 0 -1.4269 4.04313zm-4.6378-1.962a1.42709 1.42709 0 1 0 2.85417 0 39.39592 39.39592 0 0 0 -1.42691-4.04349 39.38951 39.38951 0 0 0 -1.42726 4.04349zm25.06 0a1.42726 1.42726 0 1 0 2.85452 0 39.38951 39.38951 0 0 0 -1.42726-4.04349 39.38951 39.38951 0 0 0 -1.42725 4.04349zm-4.403 1.86164a1.42709 1.42709 0 1 0 2.85417 0 39.411 39.411 0 0 0 -1.42726-4.0431 39.41745 39.41745 0 0 0 -1.4269 4.04307zm10.0873-55.14938c-1.57983 0-5.50974-.1153-5.50974 2.2351 0 2.11878 2.50439 1.27119 2.50439 2.92837 0 .53926-1.65681 7.08925-2.967 7.08925-.92492 0-1.77247-2.3891-2.04212-3.0057-.38494-.84759-1.69516-3.236-1.69516-4.27654 0-.96288 1.73383-1.30987 1.73383-2.58138 0-.65527.15432-2.3891-7.32091-2.3891-8.05245 0-7.51318 2.31176-7.51318 2.54342a2.11838 2.11838 0 0 0 1.42551 1.88779c1.15586.65492 1.96549 3.044 1.96549 3.39029a6.88981 6.88981 0 0 1 -.50131 1.50285c-.19231.57794-1.00154 3.3523-2.00344 3.3523-.88625 0-1.73383-2.69738-1.92647-3.31363a20.59571 20.59571 0 0 1 -1.34817-4.39254c0-1.19454.88553-1.34854.88553-2.5044 0-1.57983-.96287-2.46608-6.58826-2.46608-1.7725 0-6.97393.07734-6.97393 2.73573 0 2.3504 1.54117.92488 2.62 3.69893l.13516.6807c1.10643 9.54032 4.72245 40.007 5.76894 40.007.45077 0 .9601-3.00571 1.4471-7.12932 1.382 5.40526 2.59671 9.27 3.24467 9.27 1.94073 0 4.50542-18.40311 5.562-26.68932a4.37146 4.37146 0 0 0 4.52318.05711c1.50182 9.362 4.46187 26.63221 5.86611 26.63221.62813 0 1.7582-3.5084 3.05133-8.5137.45882 3.72925.933 6.373 1.35585 6.373.96533 0 4.11769-25.93024 5.469-37.43673.40445-2.02784.642-3.251.642-3.251 1.04057-2.69739 2.65872-2.19611 2.65872-4.08423.00005-2.15739-2.88965-2.35038-4.46912-2.35038z"
        fill="#37539d" />
</svg>