<svg enable-background="new 0 0 512 512" viewBox="0 0 512 512" xmlns="http://www.w3.org/2000/svg">
    <!-- Curiosity + Concept + Craft by @nyuudo / www.nyuudo.com  -->
    <path d="m-28.2-28.2h568.5v568.5h-568.5z" fill="#37539d" />
    <path d="m4.4 18.2c0 .7.3 1.4.8 2z" fill="#37539d" />
    <g fill="#f5f6fa">
        <path
            d="m267 248c0-5.8-4.7-10.4-10.4-10.4s-10.4 4.7-10.4 10.4c0 3.4 10.4 29.5 10.4 29.5s10.4-26.1 10.4-29.5z" />
        <path
            d="m324.7 59.3c0-5.8-4.7-10.4-10.4-10.4-5.8 0-10.4 4.7-10.4 10.4 0 3.4 10.4 29.5 10.4 29.5s10.4-26.1 10.4-29.5z" />
        <path
            d="m358.6 73.7c0-5.8-4.7-10.4-10.4-10.4-5.8 0-10.4 4.7-10.4 10.4 0 3.4 10.4 29.5 10.4 29.5s10.4-26.1 10.4-29.5z" />
        <path
            d="m175.5 73.7c0-5.8-4.7-10.4-10.4-10.4-5.8 0-10.4 4.7-10.4 10.4 0 3.4 10.4 29.5 10.4 29.5s10.4-26.1 10.4-29.5z" />
        <path
            d="m207.7 60.1c0-5.8-4.7-10.4-10.4-10.4-5.8 0-10.4 4.7-10.4 10.4 0 3.4 10.4 29.5 10.4 29.5s10.4-26.1 10.4-29.5z" />
        <path
            d="m133.9 463.1c11.5 0 40.3.8 40.3-16.3 0-15.5-18.3-9.3-18.3-21.4 0-3.9 12.1-51.8 21.7-51.8 6.8 0 13 17.5 14.9 22 2.8 6.2 12.4 23.6 12.4 31.3 0 7-12.7 9.6-12.7 18.9 0 4.8-1.1 17.5 53.5 17.5 58.8 0 54.9-16.9 54.9-18.6 0-7-4.8-11-10.4-13.8-8.4-4.8-14.4-22.2-14.4-24.8.8-3.8 2-7.5 3.7-11 1.4-4.2 7.3-24.5 14.6-24.5 6.5 0 12.7 19.7 14.1 24.2 1.1 3.4 9.9 23.9 9.9 32.1 0 8.7-6.5 9.9-6.5 18.3 0 11.5 7 18 48.1 18 13 0 51-.6 51-20 0-17.2-11.3-6.8-19.1-27 0 0-.4-1.8-1-5-8.1-69.7-34.5-292.4-42.2-292.4-3.3 0-7 22-10.6 52.1-10.1-39.5-19-67.7-23.7-67.7-14.2 0-32.9 134.5-40.6 195-10.1-6.3-22.8-6.4-33.1-.4-11-68.4-32.6-194.6-42.9-194.6-4.6 0-12.8 25.6-22.3 62.2-3.4-27.3-6.8-46.6-9.9-46.6-7.1 0-30.1 189.5-40 273.6-3 14.8-4.7 23.8-4.7 23.8-7.6 19.7-19.4 16-19.4 29.8.1 15.7 21.2 17.1 32.7 17.1z" />
    </g>
</svg>